<svg version="1" xmlns="http://www.w3.org/2000/svg" width="682.667" height="682.667" viewBox="0 0 512.000000 512.000000"><path d="M389.5 1c-1.1.5-24 7.7-51 16-26.9 8.4-56.6 17.6-66 20.5-9.3 2.9-22.8 7.1-30 9.4-7.1 2.2-20.4 6.3-29.5 9.1-9.1 2.9-19.4 6.1-23 7.2-36.1 11-44.1 14.4-47.5 20.1-2 3.1-2 6.3-2.3 148.5L140 377l-4-2.5c-4.2-2.7-15-7.7-15-7 0 .3-1.2 0-2.6-.5-3-1.2-9.8-2.1-17.4-2.3-26.1-.7-56.2 14-74.5 36.2-21.6 26.5-25.3 57.6-9.6 80.4 1.7 2.5 2.7 4.8 2.3 5.2-.4.3 0 .5.8.3s1.4.3 1.3.9c-.2.7.3 1.2 1 1 .6-.1 1.1.4 1 1-.2.7.3 1.2 1 1 .6-.1 1.1.4.9 1.1-.1.8.2 1.1.7.8.5-.4 1.6.1 2.4.9.9.8 2.1 1.5 2.7 1.5.6 0 .8.5.5 1.1-.4.6-.1.9.6.8.8-.2 3.8.9 6.6 2.4 2.9 1.5 5.6 2.8 6 2.8.5.1 1.3.3 1.8.5 2.4.7 8.5 1.5 14.5 1.9 3.6.3 8.2.7 10.3.8 2 .2 3.7.1 3.7-.3 0-.3 1.9-.6 4.3-.5 2.3 0 4.5-.4 4.9-1 .5-.6 1.1-.5 1.8.5.8 1.3 1 1.2 1-.3 0-2 1.1-2.2 2.9-.4 1.1.9 1.3.9.7-.1-.4-.7-.2-1.2.6-1.3.7-.1 2.5-.3 4.1-.5 1.9-.2 2.5.1 2 .9-.5.9-.3.8.9 0 1.5-1.3 2.8-.8 2.8.9 0 .5-.5.6-1.2.2-.7-.5-.8-.3-.3.5.5.9 1 1 1.8.2 1.2-1.2-.9-4.4-2.3-3.6-.5.3-1.1.1-1.4-.4-.4-.5.2-.8 1.1-.7 1 .2 2.1-.2 2.5-.7.3-.6 1.3-1.2 2.2-1.3.8-.1 2.8-1.1 4.4-2.3 2.3-1.6 3.2-1.8 4.2-.8s1.2.8.6-.8c-.4-1.1-.4-1.6 0-1.2.4.4 1.9-.3 3.2-1.5 1.4-1.3 2.2-1.8 1.9-1.2-.4.7-.1 1.4.7 1.7.9.4 1.3 0 1.1-1.1-.3-1.9 1.4-4.4 2.5-3.7.4.2 2.4-1.1 4.4-3.1 2.1-2 4.1-3.2 4.8-2.8.7.5.9.2.6-.7-.3-.8.7-2.4 2.3-3.7l2.8-2.2 2 2.2c1.2 1.2 2.1 3 2.1 4s.4 1.8 1 1.8c1.3 0 .2-2.8-2.5-6.5l-2.2-3 2.1-2.1c3.2-3.2 5.6-6.3 5.6-7.2 0-.4.9-1.4 1.9-2.2 1.1-.7 1.8-1.7 1.6-2-.2-.4.6-2.2 1.8-4.1 2.1-3.4 2.8-5.1 7-16.4l2.2-6 .3-152 .2-152.1 12.3-4.1c6.7-2.2 26.2-8.9 43.2-14.7 17.1-5.9 34.8-12 39.5-13.6 4.7-1.6 17.7-6 29-9.9 11.3-3.8 32.9-11.2 48-16.4 15.1-5.2 31.8-10.9 37-12.6 5.2-1.8 10.2-3.6 11-4 .9-.5 3.1-1.2 5-1.6 1.9-.4 4.1-1.2 4.8-1.7.8-.7 1.2-.6 1.3.3.1.8.2 55.2.3 120.9l.1 119.5-8.1-4.1c-11.4-5.9-20.8-7.8-34.8-7.1-6.1.3-12.1.8-13.3 1.1-1.3.3-3.1.8-4.2 1-4.2 1-11.9 3.9-19 7.3-25.4 12.2-44.6 34.9-51.2 60.5-2.5 9.7-2.2 24 .7 32.3 4.8 13.6 14.2 24.3 26.9 30.6 11 5.4 20.2 7.2 34 6.6 39-1.8 75.2-29.7 86.6-66.7l2.3-7.5V13.4l-2.3-4.6c-1.2-2.6-3.3-5.4-4.7-6.3C401.6.7 392.5-.2 389.5 1zM418 447.4c0 .2.8 1 1.8 1.7 1.5 1.3 1.6 1.2.3-.4s-2.1-2.1-2.1-1.3zM387.3 452.5c0 .8.4 1.2.9.9.5-.3.6-1 .3-1.5-.9-1.3-1.2-1.1-1.2.6z"/><path d="M157.5 458c-.3.5-.1 1 .4 1 .6 0 1.1-.5 1.1-1 0-.6-.2-1-.4-1-.3 0-.8.4-1.1 1zM161.5 457.9c-.3.5-.2 1.2.3 1.5.5.3.9-.1.9-.9 0-1.7-.3-1.9-1.2-.6zM151.6 461.8c-.3.5.1.9.9.9s1.2-.4.9-.9c-.3-.4-.7-.8-.9-.8-.2 0-.6.4-.9.8zM177.6 462.2c.3.5 1 .6 1.5.3 1.3-.9 1.1-1.2-.6-1.2-.8 0-1.2.4-.9.9zM181.9 461.2c-.5 1.8-.6 3.8-.1 3.4.7-.8 1.2-3.6.6-3.6-.2 0-.4.1-.5.2zM386.7 464.1c.7.7 1.5 1 1.8.7.3-.3-.2-.9-1.2-1.2-1.4-.6-1.5-.5-.6.5zM162.9 465.7c-1.3 1.6-1.2 1.7.4.4 1.6-1.3 2.1-2.1 1.3-2.1-.2 0-1 .8-1.7 1.7zM148.3 465.8c-.7.4-.9 1.3-.4 2.1.6.9 1 .7 1.4-.8.3-1.2.4-2.1.4-2.1-.1 0-.7.4-1.4.8zM155 466.5c.5.7.6 1.6.2 2.1-.4.5-.3.5.2.1 1.5-1.2 1.5-3.4 0-3.4-.9 0-1.1.4-.4 1.2zM158.7 466.1c.7.7 1.5 1 1.8.7.3-.3-.2-.9-1.2-1.2-1.4-.6-1.5-.5-.6.5zM165.1 467.3c-.8 1-.7 1.4.2 1.4.8 0 1.4-.6 1.4-1.4 0-.7-.1-1.3-.2-1.3-.2 0-.8.6-1.4 1.3zM190.9 467.7c-1.3 1.6-1.2 1.7.4.4 1.6-1.3 2.1-2.1 1.3-2.1-.2 0-1 .8-1.7 1.7zM143.4 468.8c.3.5 0 1.3-.6 1.5-.8.3-.6.6.5.6 1.9.1 2.3-1.4.5-2.5-.6-.4-.8-.3-.4.4zM157.5 469c-.4.6.1.7 1.1.3 1.3-.5 1.5-.3.9.7-.5.9-.4 1.1.4.6.6-.4.9-1.2.6-1.7-.8-1.2-2.2-1.2-3 .1zM162.6 470.3c.3 1 .9 1.5 1.2 1.2.3-.3 0-1.1-.7-1.8-1-.9-1.1-.8-.5.6zM174 469.5c0 .2.6.8 1.3 1.4 1 .8 1.4.7 1.4-.2 0-.8-.6-1.4-1.4-1.4-.7 0-1.3.1-1.3.2zM185.6 469.8c-.3.4.4.9 1.5.9 2.3.2 2.5-.3.4-1-.8-.4-1.6-.3-1.9.1zM155.7 472c.7 2.6 1.9 3.4 2.9 1.9.4-.8.3-.9-.4-.5s-1.2.1-1.2-.8c0-.8-.4-1.7-.9-2-.5-.4-.7.3-.4 1.4zM165.5 470.9c-.3.5-.2 1.2.3 1.5.5.3.9-.1.9-.9 0-1.7-.3-1.9-1.2-.6zM169.6 471.3c.3 1 .9 1.5 1.2 1.2.3-.3 0-1.1-.7-1.8-1-.9-1.1-.8-.5.6zM181.5 471.1c-.4.6-.5 1.2-.2 1.5.2.3.7-.2 1-1.1.7-1.7.1-2-.8-.4zM139.5 472c-.3.5-.1 1 .4 1 .6 0 1.1-.5 1.1-1 0-.6-.2-1-.4-1-.3 0-.8.4-1.1 1zM145.9 471.7c-.1.4-.1 1.2 0 1.7s-.6.6-1.4.2c-.9-.3-2.1-.4-2.5-.1-1.1.7-.1 3.5 1.2 3.5.6 0 .4-.7-.3-1.6-1.2-1.5-1.1-1.6.7-1 2.4.7 5.3-1.7 3.4-2.9-.5-.3-1.1-.3-1.1.2zM151 474c0 .5.5 1 1 1 .6 0 1-.5 1-1 0-.6-.4-1-1-1-.5 0-1 .4-1 1zM163.4 475.4c.2 1.4 0 2.7-.5 3-.5.2-.4.3.3.2 1.4-.3 2-5.6.6-5.6-.4 0-.6 1.1-.4 2.4zM174.6 473.8c-.3.5.1.9.9.9s1.2-.4.9-.9c-.3-.4-.7-.8-.9-.8-.2 0-.6.4-.9.8zM168.9 475.7c-1.3 1.6-1.2 1.7.4.4 1.6-1.3 2.1-2.1 1.3-2.1-.2 0-1 .8-1.7 1.7zM146 476c-1.8 1.2-.2 1.2 2.5 0 1.3-.6 1.5-.9.5-.9-.8 0-2.2.4-3 .9zM159 476c0 .5.5 1 1.1 1 .5 0 .7-.5.4-1-.3-.6-.8-1-1.1-1-.2 0-.4.4-.4 1zM185.4 476.4c.1.8.5 1.8.8 2.2.4.3.5-.1.4-1-.1-.8-.5-1.8-.8-2.2-.4-.3-.5.1-.4 1zM134.1 477.7c-.5 1-1 2.2-1 2.8-.1.5-.8 1-1.6 1-2.5 0-5.9 3.5-4.6 4.8 1.9 1.9 1.2 3.1-.7 1.4-2.2-2-3.7-1.1-1.9 1.1 1 1.3.9 1.5-.6.9-1-.4-2.1-.7-2.3-.7-.3 0-.2-.6.2-1.3.4-.6.3-.8-.1-.4-1.3 1.1-1.5 3.7-.3 3.7.6 0 .4.7-.3 1.7-.9 1-.9 1.4-.2 1 .8-.5 1.2.1 1 2-.1 1.9.3 2.9 1.6 3.1.9.2 1.7-.1 1.7-.7s-.6-.8-1.4-.5c-1.8.7-1.5-2.1.4-3.9 1.1-1 1.2-.8.6.8-.6 1.7-.4 1.7 1.8-.4 1.5-1.4 2.6-2 2.6-1.4 0 .6-.7 1.6-1.5 2.3-.8.7-1.5 1.7-1.5 2.4 0 .6 1-.4 2.3-2.1 2-3 4.8-4.8 3.1-2.1-.4.7-.3.8.5.4.6-.4.8-1.2.5-1.8-.5-.7-.1-.9.9-.5 1.1.4 1.4.2 1.1-.8-.5-1.2-.9-1.2-2.8 0-1.3.8-2.6 1.2-2.9.8-1.2-1.2-.7-2.1 1.1-1.9 1 0 1.6-.6 1.6-1.7-.1-.9.1-1.8.5-1.8 3.6-.8 5.4-.4 6.6 1.5.8 1.1 1.5 1.7 1.5 1.3 0-.4 1-.3 2.3.3 1.9.9 2 .9.4-.2-1-.7-2.8-2.1-3.9-3-1.1-1-2.5-1.5-3.1-1.1-.6.4-.8 0-.4-1 .4-1.2.2-1.4-1.1-1-1.4.6-1.5.4-.4-.9.6-.8 2.3-1.4 3.6-1.3 1.8.2 2.3-.1 1.9-1.1-.3-.8-.9-1.4-1.5-1.4-.5 0-.6.5-.2 1.1.4.7.1 1-.6.7-2.1-.7-2.3-2.6-.3-3.1 1.6-.4 1.6-.5.1-.6-1 0-2.2.7-2.7 1.6zM133 484c0 .5-1 1.2-2.1 1.5-1.7.6-1.8.9-.8 1.6.7.4 1 1.1.6 1.5-.4.4-1.4-.1-2.1-1.2-1.3-1.6-1.2-2.1.1-3.6 1.4-1.6 4.3-1.5 4.3.2zm-5.5 8c-.8 1.3-5.2.8-5.2-.6 0-.7.4-1.1.9-.8 1.3.8 3-.7 2.1-2-.4-.7 0-.3.9.7 1 1.1 1.6 2.3 1.3 2.7zM147.6 478.5c-2.3 2.3-2 3.2.4 1 1.9-1.8 2-1.7 2 .4 0 1.2-.3 2-.8 1.7-1.2-.7-4.5 2.2-3.7 3.4.4.6 1.6.8 2.7.4 1.5-.4 1.8-.3 1.3.6-.5.9-.4 1.1.4.6 1.9-1.2.1-2.7-2.2-2-1.9.6-2 .5-.8-.9.7-.9 1.8-1.5 2.4-1.4 1.4.3 2.2-3.2.9-4.5-.6-.6-1.5-.3-2.6.7zM156.7 477.7c-.9.9-.9 4.1.1 4.6.4.3.7-.8.7-2.4 0-1.6 0-2.9-.1-2.9 0 0-.4.3-.7.7zM143.7 480c.3 1.1.7 2 .9 2 .2 0 .4-.9.4-2s-.4-2-.9-2-.7.9-.4 2zM167.5 479c-.4.6-1 .8-1.4.6-.4-.3-1.3 0-2.1.5-1.1.7-1 .8.8.6 2-.3 5.6-2.7 4-2.7-.4 0-1 .5-1.3 1zM169.3 480.4c-.3.6-.3.8.2.4.4-.4 1.3-.3 2 .2.8.7 1.2.5 1.2-.3 0-1.6-2.5-1.8-3.4-.3zM151.6 482.7c-.6 1.4-.5 1.5.5.6.7-.7 1-1.5.7-1.8-.3-.3-.9.2-1.2 1.2z"/><path d="M137.5 483c.3.5.8 1 1.1 1 .2 0 .4-.5.4-1 0-.6-.5-1-1.1-1-.5 0-.7.4-.4 1zM164.9 483.7c-1.3 1.6-1.2 1.7.4.4 1.6-1.3 2.1-2.1 1.3-2.1-.2 0-1 .8-1.7 1.7zM140 483.9c0 .5 1.3 1.9 2.9 3.1 2.3 1.5 3.1 1.7 3.7.8.4-.7.4-1-.1-.6-.4.4-1.3.2-2.1-.5-3.5-3.1-4.4-3.7-4.4-2.8zM153.7 484.4c-.4 1 .1 1.2 1.4.9 2.3-.6 2.4-.9.5-1.6-.8-.3-1.7 0-1.9.7zM135.1 489.1c1.2 1 2.7 1.9 3.3 1.9.6 0 .3-.7-.6-1.4-1-.7-1.6-1.5-1.3-1.7.2-.3-.5-.6-1.6-.6-2-.2-2-.1.2 1.8zM149.9 488.7c-1.3 1.5-1.2 1.5.7.5 1.6-.8 2.4-.8 3.4.1 1.2 1 1.2.9.1-.6-1.7-2.1-2.5-2.1-4.2 0zM147.4 490.4c.3 1 .2 2.4-.4 3.1-.7.8-.6 1.2.4 1.2 1.5 0 1.5-4.2.1-5.5-.5-.4-.5.1-.1 1.2zM115 492.5c-.7.9-.9 1.5-.4 1.4 2.1-.4 2.5.2 1 1.6-1.7 1.8-3 2-2 .3.4-.6.3-.8-.4-.4-.6.3-1.4.1-1.8-.5-.5-.9-1.1-.6-2.1.7-.8 1-1.7 1.8-2.1 1.6-1-.3-1.1 3.8 0 4.4.4.3.5 1.1.1 1.7-.4.7.1.5 1.2-.3 1-.8 2.1-1.4 2.4-1.3.3.1.8-.1 1.1-.4.3-.4-.1-.3-.9.2-.9.5-1.2.3-.9-.6.3-.8 1.4-1.3 2.4-1.1 1.8.3 1.8.3-.1-1.1-1.8-1.4-1.8-1.5 1.1-1.3 1.7.1 3.9.7 4.8 1.5.9.8 1.9 1.1 2.3.7.3-.3.1-.6-.6-.6s-1-.7-.6-1.9c.3-1-.2-2.8-1.3-4.1-1.6-2-1.9-2.1-3.2-.5zm-4.3 4.5c-.1 1.1-.5 2-.9 2s-.8.7-.8 1.7c0 2.2-1.3.8-1.7-1.8-.2-1.2.1-1.8.7-1.4.6.3 1.3-.1 1.6-.9.8-2.2 1.3-2 1.1.4zm8.3-1c0 .5-.4 1-1 1-.5 0-1-.5-1-1 0-.6.5-1 1-1 .6 0 1 .4 1 1zM135.1 492.9c-.8.5-1.5 1.9-1.6 3-.1 1.1.2 1.8.7 1.5.5-.4.7-1.3.4-2.1-.5-1.1-.2-1.3.9-.9s1.4.2.9-.6c-.5-.8-.2-.9 1-.5 1 .4 1.5.3 1.1-.3-.8-1.2-1.6-1.2-3.4-.1zM157.5 492.9c-.3.5-.2 1.2.3 1.5.5.3.9-.1.9-.9 0-1.7-.3-1.9-1.2-.6zM139.6 494.6c-.8 2-.8 2.4.2 2.4.4 0 .8-.9.9-2 .2-2.4-.3-2.6-1.1-.4zM129.5 496.1c-.4.6-.4 1.3-.1 1.6.3.4.6.1.6-.6s.5-.9 1-.6c.6.3 1 .1 1-.4 0-1.4-1.7-1.4-2.5 0zM135.9 498.7c-1.3 1.6-1.2 1.7.4.4 1.6-1.3 2.1-2.1 1.3-2.1-.2 0-1 .8-1.7 1.7zM102.5 499.9c.2.9.4 1.9.4 2.2.1.3.8.6 1.7.6 1.4 0 1.4-.2-.2-1.4-1-.7-1.2-1.3-.6-1.3.7 0 1.2-.4 1.2-.8 0-.5-.6-.9-1.4-.9-.7 0-1.2.7-1.1 1.6z"/><path d="M115.5 500c.3.5.8 1 1.1 1 .2 0 .4-.5.4-1 0-.6-.5-1-1.1-1-.5 0-.7.4-.4 1zM127 499.9c0 .6.4 1.2.8 1.5.5.3.9-.1.9-.9s-.4-1.5-.9-1.5c-.4 0-.8.4-.8.9zM118.6 501.9c-.4.5.3.7 1.4.4 2.3-.6 2.6-1.3.6-1.3-.8 0-1.7.4-2 .9zM93.3 503.5c0 .8.4 1.2.9.9.5-.3.6-1 .3-1.5-.9-1.3-1.2-1.1-1.2.6zM122 504c-.9.6-1 1-.3 1 .6 0 1.5-.5 1.8-1 .8-1.2.4-1.2-1.5 0zM127.6 504.2c.3.5 1 .6 1.5.3 1.3-.9 1.1-1.2-.6-1.2-.8 0-1.2.4-.9.9zM89.6 506.7c-.6 1.4-.5 1.5.5.6.7-.7 1-1.5.7-1.8-.3-.3-.9.2-1.2 1.2z"/></svg>